<svg xmlns="http://www.w3.org/2000/svg" xmlns:svg="http://www.w3.org/2000/svg" id="svg2" width="512" height="256" version="1.1"><metadata id="metadata7"/><g id="layer1" transform="translate(0,-796.36218)"><g id="g4178" transform="translate(-256,-512.00002)"><path id="path4143" fill="#4e69a2" fill-opacity="1" stroke="#4e69a2" stroke-dasharray="none" stroke-linecap="butt" stroke-linejoin="round" stroke-miterlimit="4" stroke-opacity="1" stroke-width="2" d="m 332,1372.3622 8,16 8,0 56,112 32,0 -8,-16 -8,0 -56,-112 z"/><path id="path4145" fill="#4e69a2" fill-opacity="1" stroke="#4e69a2" stroke-dasharray="none" stroke-linecap="butt" stroke-linejoin="round" stroke-miterlimit="4" stroke-opacity="1" stroke-width="2" d="m 348,1500.3622 24,-48 -12,-24 -36,72 z"/><path id="path4147" fill="#4e69a2" fill-opacity="1" stroke="#4e69a2" stroke-dasharray="none" stroke-linecap="butt" stroke-linejoin="round" stroke-miterlimit="4" stroke-opacity="1" stroke-width="2" d="m 394,1360.3622 -14,28 12,24 26,-52 z"/><path id="path4149" fill="#4e69a2" fill-opacity="1" stroke="#4e69a2" stroke-dasharray="none" stroke-linecap="butt" stroke-linejoin="round" stroke-miterlimit="4" stroke-opacity="1" stroke-width="2" d="m 350,1512.3622 26,-52 12,24 -14,28 z"/><path id="path4162" fill="#4e69a2" fill-opacity="1" stroke="#4e69a2" stroke-dasharray="none" stroke-linecap="butt" stroke-linejoin="round" stroke-miterlimit="4" stroke-opacity="1" stroke-width="2" d="m 396,1420.3622 12,24 36,-72 -24,0 z"/></g><rect id="rect3063" width="256" height="256" x="256" y="0" fill="#4e69a2" fill-opacity="1" fill-rule="evenodd" stroke="none" stroke-linecap="butt" stroke-linejoin="miter" stroke-opacity="1" stroke-width="1" transform="translate(0,796.36218)"/><g id="g3850" transform="translate(-8,-10e-6)"><path id="path3067" fill="#fff" fill-opacity="1" stroke="#fff" stroke-dasharray="none" stroke-linecap="butt" stroke-linejoin="round" stroke-miterlimit="4" stroke-opacity="1" stroke-width="2" d="m 340,860.36218 8,16 8,0 56,112 32,0 -8,-16 -8,0 -56,-112 z"/><path id="path3069" fill="#fff" fill-opacity="1" stroke="#fff" stroke-dasharray="none" stroke-linecap="butt" stroke-linejoin="round" stroke-miterlimit="4" stroke-opacity="1" stroke-width="2" d="m 356,988.36218 24,-48 -12,-24 -36,72 z"/><path id="path3071" fill="#fff" fill-opacity="1" stroke="#fff" stroke-dasharray="none" stroke-linecap="butt" stroke-linejoin="round" stroke-miterlimit="4" stroke-opacity="1" stroke-width="2" d="m 402,848.36218 -14,28 12,24 26,-52 z"/><path id="path3073" fill="#fff" fill-opacity="1" stroke="#fff" stroke-dasharray="none" stroke-linecap="butt" stroke-linejoin="round" stroke-miterlimit="4" stroke-opacity="1" stroke-width="2" d="m 358,1000.3622 26,-52.00002 12,24 -14,28.00002 z"/><path id="path3075" fill="#fff" fill-opacity="1" stroke="#fff" stroke-dasharray="none" stroke-linecap="butt" stroke-linejoin="round" stroke-miterlimit="4" stroke-opacity="1" stroke-width="2" d="m 404,908.36218 12,24 36,-72 -24,0 z"/></g></g></svg>